<?xml version="1.0" encoding="UTF-8"?>
<svg viewBox="0 0 1440 132" version="1.1" xmlns="http://www.w3.org/2000/svg" xmlns:xlink="http://www.w3.org/1999/xlink">
    <g id="Wordmark" stroke="none" stroke-width="1" fill="none" fill-rule="evenodd">
        <g id="Wordmark-Copy" transform="translate(-1088.000000, -2324.000000)" fill="#0F0F0F">
            <g id="wordmark-short" transform="translate(138.000000, 2268.000000)">
                <g id="brand-full" transform="translate(950.000000, 0.000000)">
                    <text id="starter" opacity="0.44" font-family="Masbul-Book, Masbul" font-size="182" font-weight="300" letter-spacing="-4">
                        <tspan x="890" y="184">starte</tspan>
                        <tspan x="1368.866" y="184">r</tspan>
                    </text>
                    <path d="M134.071366,124.226721 L134.071366,185.684211 L109.303162,185.684211 L109.303162,129.927126 C109.303162,118.882591 103.73929,112.291498 94.5858234,112.291498 C85.6118364,112.291498 79.3300455,118.882591 79.3300455,130.105263 L79.3300455,185.684211 L54.5618412,185.684211 L54.5618412,129.036437 C54.5618412,118.526316 49.177449,112.291498 40.0239822,112.291498 C31.2294749,112.291498 24.7682042,118.882591 24.7682042,129.927126 L24.7682042,185.684211 L0,185.684211 L0,92.5182186 L24.229765,92.5182186 L24.229765,103.384615 C27.6398801,96.9716599 35.8959482,90.2024291 48.6390098,90.2024291 C60.6641524,90.2024291 69.4586597,95.5465587 74.3046127,104.097166 C79.8684847,95.5465587 89.5603907,90.2024291 102.123973,90.2024291 C123.482062,90.2024291 134.071366,104.275304 134.071366,124.226721 Z M143.50527,139.368421 C143.50527,111.222672 162.709603,90.2024291 189.452084,90.2024291 C218.527802,90.2024291 235.039938,109.441296 235.039938,139.902834 C235.039938,141.684211 235.039938,143.465587 234.860458,145.246964 L168.811914,145.246964 C169.350353,157.716599 179.401218,166.623482 193.221158,166.623482 C198.131737,166.623482 203.744798,164.834693 210.060341,161.257116 L226.290208,175.194293 C214.694215,183.731431 203.551545,188 192.862199,188 C162.709603,188 143.50527,167.336032 143.50527,139.368421 Z M169.529833,129.214575 L209.912774,129.214575 C209.374335,117.813765 201.118267,110.331984 189.811043,110.331984 C178.14486,110.331984 170.606711,118.526316 169.529833,129.214575 Z M294.728169,90.2024291 C297.02728,90.2024291 299.809663,90.6255515 303.075317,91.4717963 L296.537873,117.112491 C278.051459,117.112491 269.421526,126.54251 269.421526,145.068826 L269.421526,185.684211 L244.653322,185.684211 L244.653322,92.5182186 L267.049753,92.5182186 L268.883087,106.05668 C273.011121,96.7935223 282.344067,90.2024291 294.728169,90.2024291 Z M312.392805,185.684211 L312.392805,92.5182186 L337.16101,92.5182186 L337.16101,185.684211 L312.392805,185.684211 Z M310.239048,70.0728745 C310.239048,62.0566802 316.520839,56 324.597428,56 C332.853496,56 339.135287,62.0566802 339.135287,70.0728745 C339.135287,78.0890688 332.853496,84.145749 324.597428,84.145749 C316.520839,84.145749 310.239048,78.0890688 310.239048,70.0728745 Z M444.411372,56.8906883 L444.411372,185.684211 L422.912339,185.684211 L421.079006,176.064777 C418.56629,179.093117 409.233343,188 393.259646,188 C366.337685,188 347.312832,167.870445 347.312832,139.190283 C347.312832,110.331984 364.901847,90.2024291 391.823808,90.2024291 C407.976985,90.2024291 417.309931,99.1093117 419.643168,102.315789 L419.643168,56.8906883 L444.411372,56.8906883 Z M420.361087,139.368421 C420.361087,121.910931 409.951262,111.935223 396.310802,111.935223 C381.952422,111.935223 372.260516,123.157895 372.260516,139.368421 C372.260516,155.935223 382.311382,166.267206 396.310802,166.267206 C411.3871,166.267206 420.361087,154.153846 420.361087,139.368421 Z M459.588628,185.684211 L459.588628,92.5182186 L484.356832,92.5182186 L484.356832,185.684211 L459.588628,185.684211 Z M457.434871,70.0728745 C457.434871,62.0566802 463.716662,56 471.79325,56 C480.049318,56 486.331109,62.0566802 486.331109,70.0728745 C486.331109,78.0890688 480.049318,84.145749 471.79325,84.145749 C463.716662,84.145749 457.434871,78.0890688 457.434871,70.0728745 Z M591.078039,92.6248581 L591.078039,121.287449 L591.078039,185.684211 L569.579006,185.684211 L567.745673,176.064777 C565.232956,179.093117 555.90001,188 539.926313,188 C513.004352,188 493.979499,167.870445 493.979499,139.190283 C493.979499,110.331984 511.568514,90.2024291 538.490475,90.2024291 C554.643651,90.2024291 563.976598,99.1093117 566.309835,102.315789 L566.309835,92.6248581 L591.078039,92.6248581 Z M567.027754,139.368421 C567.027754,121.910931 556.617929,111.935223 542.977468,111.935223 C528.619089,111.935223 518.927183,123.157895 518.927183,139.368421 C518.927183,155.935223 528.978049,166.267206 542.977468,166.267206 C558.053767,166.267206 567.027754,154.153846 567.027754,139.368421 Z M655.770283,90.2024291 C682.512765,90.2024291 688.256116,112.11336 688.256116,131.88664 L688.256116,185.684211 L663.487912,185.684211 L663.487912,129.036437 C663.487912,118.704453 656.308723,112.291498 647.873175,112.291498 C637.64283,112.291498 631.181559,119.773279 631.181559,129.748988 L631.181559,185.684211 L606.413355,185.684211 L606.413355,92.5182186 L628.809786,92.5182186 L630.64312,103.384615 C634.591674,96.9716599 643.565661,90.2024291 655.770283,90.2024291 Z M714.920075,188 C706.305048,188 699.664297,181.230769 699.664297,173.036437 C699.664297,164.663968 706.305048,157.716599 714.920075,157.716599 C723.535103,157.716599 730.175853,164.663968 730.175853,173.036437 C730.175853,181.230769 723.535103,188 714.920075,188 Z M742.5,185.832659 L742.5,92.6666667 L767.268204,92.6666667 L767.268204,185.832659 L742.5,185.832659 Z M740.666667,70.0728745 C740.666667,62.0566802 746.948458,56 755.025046,56 C763.281114,56 769.562905,62.0566802 769.562905,70.0728745 C769.562905,78.0890688 763.281114,84.145749 755.025046,84.145749 C746.948458,84.145749 740.666667,78.0890688 740.666667,70.0728745 Z M874.431873,56 L874.431873,184.793522 L852.93284,184.793522 L851.099507,175.174089 C848.58679,178.202429 839.253844,187.109312 823.280147,187.109312 C796.358186,187.109312 777.333333,166.979757 777.333333,138.299595 C777.333333,109.441296 794.922348,89.3117409 821.844309,89.3117409 C837.997486,89.3117409 847.330432,98.2186235 849.663669,101.425101 L849.663669,56 L874.431873,56 Z M851.100571,140.266532 C851.100571,122.809042 840.690746,112.833333 827.050285,112.833333 C812.691906,112.833333 803,124.056005 803,140.266532 C803,156.833333 813.050865,167.165317 827.050285,167.165317 C842.126584,167.165317 851.100571,155.051957 851.100571,140.266532 Z" id="meridian.id-medium-complete"></path>
                </g>
            </g>
        </g>
    </g>
</svg>
