<?xml version="1.0" encoding="UTF-8"?>
<svg viewBox="0 0 320 132" version="1.1" xmlns="http://www.w3.org/2000/svg" xmlns:xlink="http://www.w3.org/1999/xlink">
    <g id="Wordmark" stroke="none" stroke-width="1" fill="none" fill-rule="evenodd">
        <g id="Wordmark-Copy" transform="translate(-138.000000, -2005.000000)" fill="#0F0F0F">
            <g id="wordmark-short" transform="translate(138.000000, 2005.000000)">
                <g id="logo">
                    <g id="meridian.id-short">
                        <path d="M133.723129,68.2267206 L133.723129,129.684211 L109.019258,129.684211 L109.019258,73.9271255 C109.019258,62.8825911 103.469838,56.291498 94.340146,56.291498 C85.389468,56.291498 79.1239934,62.8825911 79.1239934,74.1052632 L79.1239934,129.684211 L54.4201221,129.684211 L54.4201221,73.0364372 C54.4201221,62.5263158 49.0497154,56.291498 39.9200238,56.291498 C31.1483594,56.291498 24.7038712,62.8825911 24.7038712,73.9271255 L24.7038712,129.684211 L0,129.684211 L0,36.5182186 L24.1668306,36.5182186 L24.1668306,47.3846154 C27.5680882,40.9716599 35.8027119,34.2024291 48.5126747,34.2024291 C60.5065832,34.2024291 69.2782476,39.5465587 74.1116137,48.097166 C79.6610341,39.5465587 89.3277663,34.2024291 101.858715,34.2024291 C123.161329,34.2024291 133.723129,48.2753036 133.723129,68.2267206 Z M160.834569,132 C152.241918,132 145.618416,125.230769 145.618416,117.036437 C145.618416,108.663968 152.241918,101.716599 160.834569,101.716599 C169.42722,101.716599 176.050721,108.663968 176.050721,117.036437 C176.050721,125.230769 169.42722,132 160.834569,132 Z M188.342857,129.832659 L188.342857,36.6666667 L213.046728,36.6666667 L213.046728,129.832659 L188.342857,129.832659 Z M186.514286,14.0728745 C186.514286,6.05668016 192.77976,0 200.83537,0 C209.069994,0 215.335469,6.05668016 215.335469,14.0728745 C215.335469,22.0890688 209.069994,28.145749 200.83537,28.145749 C192.77976,28.145749 186.514286,22.0890688 186.514286,14.0728745 Z M319.93205,0 L319.93205,128.793522 L298.488859,128.793522 L296.660287,119.174089 C294.154097,122.202429 284.845392,131.109312 268.913186,131.109312 C242.061152,131.109312 223.085714,110.979757 223.085714,82.2995951 C223.085714,53.4412955 240.629043,33.3117409 267.481077,33.3117409 C283.592297,33.3117409 292.901003,42.2186235 295.228179,45.4251012 L295.228179,0 L319.93205,0 Z M296.661348,84.2665317 C296.661348,66.8090418 286.278562,56.8333333 272.673531,56.8333333 C258.352447,56.8333333 248.685714,68.0560054 248.685714,84.2665317 C248.685714,100.833333 258.710474,111.165317 272.673531,111.165317 C287.71067,111.165317 296.661348,99.0519568 296.661348,84.2665317 Z" id="meridian.id-medium-complete-copy-3"></path>
                    </g>
                </g>
            </g>
        </g>
    </g>
</svg>
