<?xml version="1.0" encoding="UTF-8"?>
<svg viewBox="0 0 876 132" version="1.1" xmlns="http://www.w3.org/2000/svg" xmlns:xlink="http://www.w3.org/1999/xlink">
    <g id="Wordmark" stroke="none" stroke-width="1" fill="none" fill-rule="evenodd">
        <g id="Wordmark-Copy" transform="translate(-1088.000000, -2005.000000)" fill="#0F0F0F">
            <g id="wordmark-short" transform="translate(138.000000, 2005.000000)">
                <g id="logo--full" transform="translate(950.000000, 0.000000)">
                    <path d="M134.071366,68.2267206 L134.071366,129.684211 L109.303162,129.684211 L109.303162,73.9271255 C109.303162,62.8825911 103.73929,56.291498 94.5858234,56.291498 C85.6118364,56.291498 79.3300455,62.8825911 79.3300455,74.1052632 L79.3300455,129.684211 L54.5618412,129.684211 L54.5618412,73.0364372 C54.5618412,62.5263158 49.177449,56.291498 40.0239822,56.291498 C31.2294749,56.291498 24.7682042,62.8825911 24.7682042,73.9271255 L24.7682042,129.684211 L0,129.684211 L0,36.5182186 L24.229765,36.5182186 L24.229765,47.3846154 C27.6398801,40.9716599 35.8959482,34.2024291 48.6390098,34.2024291 C60.6641524,34.2024291 69.4586597,39.5465587 74.3046127,48.097166 C79.8684847,39.5465587 89.5603907,34.2024291 102.123973,34.2024291 C123.482062,34.2024291 134.071366,48.2753036 134.071366,68.2267206 Z M143.50527,83.3684211 C143.50527,55.2226721 162.709603,34.2024291 189.452084,34.2024291 C218.527802,34.2024291 235.039938,53.4412955 235.039938,83.902834 C235.039938,85.6842105 235.039938,87.465587 234.860458,89.2469636 L168.811914,89.2469636 C169.350353,101.716599 179.401218,110.623482 193.221158,110.623482 C198.131737,110.623482 203.744798,108.834693 210.060341,105.257116 L226.290208,119.194293 C214.694215,127.731431 203.551545,132 192.862199,132 C162.709603,132 143.50527,111.336032 143.50527,83.3684211 Z M169.529833,73.2145749 L209.912774,73.2145749 C209.374335,61.8137652 201.118267,54.3319838 189.811043,54.3319838 C178.14486,54.3319838 170.606711,62.5263158 169.529833,73.2145749 Z M294.728169,34.2024291 C297.02728,34.2024291 299.809663,34.6255515 303.075317,35.4717963 L296.537873,61.1124909 C278.051459,61.1124909 269.421526,70.5425101 269.421526,89.0688259 L269.421526,129.684211 L244.653322,129.684211 L244.653322,36.5182186 L267.049753,36.5182186 L268.883087,50.0566802 C273.011121,40.7935223 282.344067,34.2024291 294.728169,34.2024291 Z M312.392805,129.684211 L312.392805,36.5182186 L337.16101,36.5182186 L337.16101,129.684211 L312.392805,129.684211 Z M310.239048,14.0728745 C310.239048,6.05668016 316.520839,0 324.597428,0 C332.853496,0 339.135287,6.05668016 339.135287,14.0728745 C339.135287,22.0890688 332.853496,28.145749 324.597428,28.145749 C316.520839,28.145749 310.239048,22.0890688 310.239048,14.0728745 Z M444.411372,0.890688259 L444.411372,129.684211 L422.912339,129.684211 L421.079006,120.064777 C418.56629,123.093117 409.233343,132 393.259646,132 C366.337685,132 347.312832,111.870445 347.312832,83.1902834 C347.312832,54.3319838 364.901847,34.2024291 391.823808,34.2024291 C407.976985,34.2024291 417.309931,43.1093117 419.643168,46.3157895 L419.643168,0.890688259 L444.411372,0.890688259 Z M420.361087,83.3684211 C420.361087,65.9109312 409.951262,55.9352227 396.310802,55.9352227 C381.952422,55.9352227 372.260516,67.1578947 372.260516,83.3684211 C372.260516,99.9352227 382.311382,110.267206 396.310802,110.267206 C411.3871,110.267206 420.361087,98.1538462 420.361087,83.3684211 Z M459.588628,129.684211 L459.588628,36.5182186 L484.356832,36.5182186 L484.356832,129.684211 L459.588628,129.684211 Z M457.434871,14.0728745 C457.434871,6.05668016 463.716662,0 471.79325,0 C480.049318,0 486.331109,6.05668016 486.331109,14.0728745 C486.331109,22.0890688 480.049318,28.145749 471.79325,28.145749 C463.716662,28.145749 457.434871,22.0890688 457.434871,14.0728745 Z M591.078039,36.6248581 L591.078039,65.2874494 L591.078039,129.684211 L569.579006,129.684211 L567.745673,120.064777 C565.232956,123.093117 555.90001,132 539.926313,132 C513.004352,132 493.979499,111.870445 493.979499,83.1902834 C493.979499,54.3319838 511.568514,34.2024291 538.490475,34.2024291 C554.643651,34.2024291 563.976598,43.1093117 566.309835,46.3157895 L566.309835,36.6248581 L591.078039,36.6248581 Z M567.027754,83.3684211 C567.027754,65.9109312 556.617929,55.9352227 542.977468,55.9352227 C528.619089,55.9352227 518.927183,67.1578947 518.927183,83.3684211 C518.927183,99.9352227 528.978049,110.267206 542.977468,110.267206 C558.053767,110.267206 567.027754,98.1538462 567.027754,83.3684211 Z M655.770283,34.2024291 C682.512765,34.2024291 688.256116,56.1133603 688.256116,75.8866397 L688.256116,129.684211 L663.487912,129.684211 L663.487912,73.0364372 C663.487912,62.7044534 656.308723,56.291498 647.873175,56.291498 C637.64283,56.291498 631.181559,63.7732794 631.181559,73.7489879 L631.181559,129.684211 L606.413355,129.684211 L606.413355,36.5182186 L628.809786,36.5182186 L630.64312,47.3846154 C634.591674,40.9716599 643.565661,34.2024291 655.770283,34.2024291 Z M714.920075,132 C706.305048,132 699.664297,125.230769 699.664297,117.036437 C699.664297,108.663968 706.305048,101.716599 714.920075,101.716599 C723.535103,101.716599 730.175853,108.663968 730.175853,117.036437 C730.175853,125.230769 723.535103,132 714.920075,132 Z M742.5,129.832659 L742.5,36.6666667 L767.268204,36.6666667 L767.268204,129.832659 L742.5,129.832659 Z M740.666667,14.0728745 C740.666667,6.05668016 746.948458,0 755.025046,0 C763.281114,0 769.562905,6.05668016 769.562905,14.0728745 C769.562905,22.0890688 763.281114,28.145749 755.025046,28.145749 C746.948458,28.145749 740.666667,22.0890688 740.666667,14.0728745 Z M874.431873,0 L874.431873,128.793522 L852.93284,128.793522 L851.099507,119.174089 C848.58679,122.202429 839.253844,131.109312 823.280147,131.109312 C796.358186,131.109312 777.333333,110.979757 777.333333,82.2995951 C777.333333,53.4412955 794.922348,33.3117409 821.844309,33.3117409 C837.997486,33.3117409 847.330432,42.2186235 849.663669,45.4251012 L849.663669,0 L874.431873,0 Z M851.100571,84.2665317 C851.100571,66.8090418 840.690746,56.8333333 827.050285,56.8333333 C812.691906,56.8333333 803,68.0560054 803,84.2665317 C803,100.833333 813.050865,111.165317 827.050285,111.165317 C842.126584,111.165317 851.100571,99.0519568 851.100571,84.2665317 Z" id="meridian.id-medium-complete"></path>
                </g>
            </g>
        </g>
    </g>
</svg>
