<svg width="24px" height="32px" viewBox="0 0 24 32" version="1.1" xmlns="http://www.w3.org/2000/svg" xmlns:xlink="http://www.w3.org/1999/xlink">
    <path d="M6,-3.55271368e-15 L18,-3.55271368e-15 C21.3137085,-4.16143205e-15 24,2.6862915 24,6 L24,20.480996 C23.9999985,22.1146518 23.3338597,23.6776746 22.1554217,24.8090963 C17.1622739,29.6030321 13.7272423,32 11.8503268,32 C9.97210957,32 6.61344943,29.5997059 1.77434642,24.7991177 C0.638740959,23.6725537 1.95895503e-16,22.139168 0,20.5395598 L0,6 C-4.05812251e-16,2.6862915 2.6862915,-2.9439953e-15 6,-3.55271368e-15 Z" fill="#0194F3"></path>
    <rect fill="#F7F9FA" x="11" y="8" width="2" height="12" rx="1"></rect>
    <rect fill="#F7F9FA" x="15" y="8" width="2" height="12" rx="1"></rect>
    <rect fill="#F7F9FA" x="7" y="8" width="2" height="12" rx="1"></rect>
</svg>